<svg xml:space="preserve" width="59.598" height="78" xmlns="http://www.w3.org/2000/svg"><path d="M0 1.5v75A1.5 1.5 0 0 0 1.5 78h56.598a1.5 1.5 0 0 0 1.5-1.5v-75a1.5 1.5 0 0 0-1.5-1.5H1.5A1.5 1.5 0 0 0 0 1.5zM3 3h53.598v72H3z"/>
    <path d="M42.403 38.558H31.045l3.872-8.417a1.499 1.499 0 0 0-1.362-2.127h-8.118c-.586 0-1.119.34-1.363.873l-8.242 17.918a1.499 1.499 0 0 0 1.362 2.127h11.747l-4.684 17.573a1.502 1.502 0 0 0 1.448 1.887 1.5 1.5 0 0 0 1.274-.708L43.677 40.85a1.498 1.498 0 0 0-1.274-2.292zM29.746 57.56l2.597-9.742a1.5 1.5 0 0 0-1.45-1.886H19.536l6.862-14.918h4.817l-3.872 8.417a1.499 1.499 0 0 0 1.362 2.127h11z"
          style="fill:#fc0;stroke:#000;stroke-opacity:1"/>
    <path d="M44.903 10.417H14.694a1.5 1.5 0 0 0-1.5 1.5v7.985a1.5 1.5 0 0 0 1.5 1.5h30.21a1.5 1.5 0 0 0 1.5-1.5v-7.985a1.5 1.5 0 0 0-1.5-1.5zm-11.656 3v4.985h-6.896v-4.985zm-17.053 0h7.157v4.985h-7.157zm27.21 4.985h-7.157v-4.985h7.156z"/></svg>